<?xml version="1.0" standalone="no"?><!DOCTYPE svg PUBLIC "-//W3C//DTD SVG 1.1//EN" "http://www.w3.org/Graphics/SVG/1.1/DTD/svg11.dtd"><svg t="1743209724658" class="icon" viewBox="0 0 1629 1024" version="1.1" xmlns="http://www.w3.org/2000/svg" p-id="25282" width="159.08203125" height="100" xmlns:xlink="http://www.w3.org/1999/xlink"><path d="M565.646998 334.894545c13.777455-32.721455 37.003636-50.362182 68.840727-52.037818 32.721455 0 55.947636 16.802909 71.447273 52.037818l127.348363 344.99491c3.444364 10.053818 5.166545 18.432 5.166546 25.18109-1.722182 24.296727-16.337455 36.910545-45.614546 36.910546-23.226182 0-39.610182-9.216-48.174545-29.370182l-18.106182-59.578182h-180.689455l-20.666181 59.578182c-8.610909 19.316364-24.110545 29.370182-48.221091 29.370182-28.392727 0-43.845818-12.613818-45.568-39.470546 0-5.026909 0.837818-10.891636 2.56-17.594181v-5.026909l131.677091-344.99491z m129.954909 230.81891l-61.114182-183.808-61.114182 183.808h122.228364z m224.581818 176.267636c-31.837091-1.675636-49.058909-17.640727-50.781091-47.010909V337.408c1.722182-29.370182 18.106182-45.335273 48.221091-47.010909h109.288727c147.176727 5.073455 223.744 82.292364 228.910546 230.818909-6.888727 140.194909-80.896 214.062545-223.744 220.765091h-111.895273z m234.077091-223.278546c-1.722182-93.137455-45.614545-140.148364-129.954909-141.824h-58.507637v278.667637h66.280728c78.289455-3.397818 118.737455-49.524364 122.181818-136.843637z m408.808727 348.346182c-36.165818 0-66.280727-28.532364-66.280727-64.651636V235.845818c0-58.740364-49.058909-105.751273-108.450909-105.751273H241.178634c-60.229818 0-108.404364 47.848727-108.404364 105.751273v658.897455h1198.778182c36.165818 0 66.280727 28.532364 66.280727 64.605091 0 35.281455-29.277091 64.651636-66.280727 64.651636H66.493543C30.37427 1024 0.259361 995.467636 0.259361 959.348364V235.845818C0.259361 105.751273 107.825907 0 241.178634 0h1147.159273c133.399273 0 241.850182 105.751273 240.965818 235.845818v566.551273c0 35.281455-30.114909 64.651636-66.234182 64.651636z" fill="#333333" p-id="25283"></path></svg>