<?xml version="1.0" standalone="no"?><!DOCTYPE svg PUBLIC "-//W3C//DTD SVG 1.1//EN" "http://www.w3.org/Graphics/SVG/1.1/DTD/svg11.dtd"><svg t="1743211782612" class="icon" viewBox="0 0 1024 1024" version="1.1" xmlns="http://www.w3.org/2000/svg" p-id="25891" xmlns:xlink="http://www.w3.org/1999/xlink" width="100" height="100"><path d="M934.330054 758.672836c-15.14629 30.955042-43.993498 60.765831-88.197779 90.968075l-0.903357 0.572126-273.596797 154.624648a117.496665 117.496665 0 0 1-62.482209 19.09095 117.918232 117.918232 0 0 1-62.572545-19.151174L177.738252 843.889536a318.041973 318.041973 0 0 1-87.384758-89.613038c-26.98027-41.464097-30.111908-89.432367-30.111908-121.893004V225.059713c0-28.606313 8.160327-53.629308 24.93266-76.574582l1.144253-1.385148c17.645578-18.067145 35.803059-36.706416 61.337956-43.421371L404.601367 17.769338a334.151844 334.151844 0 0 1 214.78824 0l256.854576 85.909274c23.66796 6.203053 48.480172 23.908855 62.211202 44.35484 22.704379 24.14975 25.173555 61.849859 25.173556 77.026261v413.045044c0 49.985767-15.959311 93.136132-29.298887 120.568079zM876.936757 225.059713c0-8.401222-4.817905-18.217704-9.846594-28.606312-3.643541-7.437641-11.894204-11.83398-21.499902-16.772333l-255.740435-85.487707c-27.883627-5.751374-54.231546-11.111294-80.699914-11.111294-26.468367 0-52.846399 5.35992-80.699914 11.111294L172.709563 179.681068c-9.605699 4.938353-17.856361 9.334692-21.499902 16.772333l-0.903358 1.866938-1.445371 1.505595c-3.643541 3.703765-7.497865 12.285658-7.497865 25.233779v413.045044c0 30.202244 6.534284 55.436023 20.596545 79.465325 15.62808 26.679151 31.135713 42.578238 57.212625 58.627885l268.989675 160.948149a37.338766 37.338766 0 0 0 41.976 0l0.662462-0.361343 268.477772-160.677142c25.926353-15.959311 41.433986-31.858399 57.092178-58.537549 14.032149-24.029303 20.566433-49.263082 20.566433-79.465325V225.059713z m-167.813664 512.022885h-109.065331v34.417911h-69.91985V470.321205h248.905032v301.179304h-69.919851v-34.417911z m0-200.786203h-109.065331v134.811013h109.065331v-134.811013zM334.350285 200.69918h360.770771v232.343482H334.350285V200.69918z m69.949963 160.616917h226.531884V266.67437h-226.531884v94.641727z m89.432367 410.184412h-69.859627v-34.417911H320.37836v34.417911H250.45851V470.321205h243.274105v301.179304z m-69.859627-235.204114H320.37836v134.811013h103.494628v-134.811013z" p-id="25892"></path></svg>