<?xml version="1.0" standalone="no"?><!DOCTYPE svg PUBLIC "-//W3C//DTD SVG 1.1//EN" "http://www.w3.org/Graphics/SVG/1.1/DTD/svg11.dtd"><svg t="1743211853511" class="icon" viewBox="0 0 1024 1024" version="1.1" xmlns="http://www.w3.org/2000/svg" p-id="26048" xmlns:xlink="http://www.w3.org/1999/xlink" width="100" height="100"><path d="M791.071712 1010.417738H232.928288C111.952255 1010.417738 13.552941 912.047745 13.552941 791.071712V232.928288C13.552941 111.952255 111.952255 13.552941 232.928288 13.552941h558.143424C912.047745 13.552941 984.058685 111.952255 984.058685 232.928288v558.143424c0 120.976033-72.01094 219.346026-192.986973 219.346026z m115.551757-777.48945a115.698358 115.698358 0 0 0-115.551757-115.551757H232.928288a115.698358 115.698358 0 0 0-115.551757 115.551757v558.143424a115.698358 115.698358 0 0 0 115.551757 115.551757h558.143424a115.698358 115.698358 0 0 0 115.551757-115.551757V232.928288zM687.336083 530.178657a250.073821 250.073821 0 0 1-158.095679 156.336454l-120.03778 39.172075a88.899499 88.899499 0 0 1-56.588401-0.322524 89.720471 89.720471 0 0 1-56.001993-113.616609l40.051687-117.92671a249.663336 249.663336 0 0 1 158.095679-156.336454l120.008459-39.201396a89.896393 89.896393 0 0 1 56.617722 0.351845c22.635361 7.623308 40.9313 23.690896 51.51597 45.124119 10.58467 21.521185 12.167972 45.769168 4.486023 68.404529L687.336083 530.178657z m-159.766943-92.50591a143.200908 143.200908 0 0 0-91.010568 90.013675l-29.877503 87.902605 89.749791-29.349736a142.995665 142.995665 0 0 0 88.28377-82.595609l2.726798-7.359425 29.877503-87.931925-89.749791 29.320415z" p-id="26049"></path></svg>