<?xml version="1.0" standalone="no"?><!DOCTYPE svg PUBLIC "-//W3C//DTD SVG 1.1//EN" "http://www.w3.org/Graphics/SVG/1.1/DTD/svg11.dtd"><svg t="1743212235712" class="icon" viewBox="0 0 1024 1024" version="1.1" xmlns="http://www.w3.org/2000/svg" p-id="26519" data-spm-anchor-id="a313x.manage_type_myprojects.0.i15.6c663a81UGrsrE" xmlns:xlink="http://www.w3.org/1999/xlink" width="100" height="100"><path d="M953.27351 576.926476c0 241.542095-201.728 438.02819-443.757715 438.028191C283.528748 1014.954667 75.559224 818.468571 75.559224 576.926476c0-110.08 36.10819-215.30819 110.616381-296.252952C258.416367 202.166857 355.940176 152.966095 468.336367 141.55581V107.154286h-93.866667V0h279.990857v107.154286h-97.158095v34.401524c94.378667 8.289524 162.645333 36.547048 210.992762 82.041904l51.736381-40.009143 95.305143 83.480381-51.760762 67.437715c55.53981 59.928381 89.697524 149.040762 89.697524 242.419809zM509.515795 234.349714c-189.269333 0-343.259429 153.697524-343.259428 342.576762 0 188.854857 153.990095 342.479238 343.259428 342.479238 189.293714 0 360.618667-153.624381 360.618667-342.479238 0-188.879238-171.324952-342.576762-360.618667-342.576762z m138.435048 297.764572l-0.999619 1.194666-239.567238 308.589715 68.315428-218.063238H381.052557l95.207619-255.097905h185.392762l-120.32 163.376762h106.617905z" fill="#333333" p-id="26520" data-spm-anchor-id="a313x.manage_type_myprojects.0.i13.6c663a81UGrsrE" class="selected"></path></svg>