<?xml version="1.0" standalone="no"?><!DOCTYPE svg PUBLIC "-//W3C//DTD SVG 1.1//EN" "http://www.w3.org/Graphics/SVG/1.1/DTD/svg11.dtd"><svg t="1743212181604" class="icon" viewBox="0 0 1024 1024" version="1.1" xmlns="http://www.w3.org/2000/svg" p-id="26362" xmlns:xlink="http://www.w3.org/1999/xlink" width="100" height="100"><path d="M498.314195 971.624614C229.704399 971.624614 40.816267 836.72759 40.816267 602.46109c0-145.070822 56.41344-244.332638 193.544394-343.836688 6.432639-4.629347 21.020466-14.910804 42.821461-30.225331 19.916959-13.941871 28.960335-20.320681 33.347449-23.442799 10.873583-7.77838 21.504933-15.987397 31.544156-24.304072 8.262846-6.917106 16.068141-14.264849 23.981095-22.581525a193.678967 193.678967 0 0 0 46.67028-78.645073c7.482317-25.380665 28.825761-44.705498 55.175359-50.438352a78.375925 78.375925 0 0 1 73.26211 21.181954l8.128273 8.531995c33.024471 35.096911 57.08631 73.881151 72.804559 116.110487 9.285609 24.842369 13.672723 50.976649 13.457405 77.030184a119.501753 119.501753 0 0 0 8.585824-15.126123 74.82317 74.82317 0 0 1 57.75918-41.045084c25.326836-3.57967 50.895904 5.382962 67.959894 23.873436a1015.468838 1015.468838 0 0 1 63.303631 76.249655C914.094168 403.802883 955.919782 506.859688 955.919782 602.46109 955.919782 836.72759 767.13931 971.624614 498.314195 971.624614z m258.651317-623.562301a928.587834 928.587834 0 0 0-40.695192-50.330693 191.768016 191.768016 0 0 1-107.067111 78.645073 62.146295 62.146295 0 0 1-16.256545 2.906799 63.46512 63.46512 0 0 1-44.32869-14.910804c-12.542301-10.900498-19.782385-26.349598-19.782385-40.076151-0.349893-5.167643 0-10.469861 1.238081-16.202715 0.565211-2.583822 1.022763-4.19871 1.937866-7.320829 1.130422-3.364351 4.064136-13.295916 4.952325-16.660267a128.841192 128.841192 0 0 0-3.498925-79.156454 247.804649 247.804649 0 0 0-41.152743-71.620307 281.798053 281.798053 0 0 1-56.978652 85.212286c-9.823905 10.496776-20.347596 20.320681-31.651815 29.71395a691.979746 691.979746 0 0 1-36.496482 28.20672c-4.87158 3.552755-13.807297 9.823905-34.47787 24.304072-21.370359 14.991549-35.850526 25.165347-41.610295 29.256398-114.630173 83.166761-156.348127 156.617275-156.348127 272.431699-0.107659 182.105599 144.371037 303.733622 363.672902 303.733623s363.672903-121.628023 363.672903-303.625963c0-74.76934-34.827763-160.519922-105.129245-254.506437z m30.306075 137.507761c-0.242233 13.295916-13.242086 23.33514-28.287464 23.119821h-30.063842v212.465504c-0.322978 13.295916-13.322831 23.33514-28.368209 23.119821h-9.258695c-15.153038 0.215318-28.15289-9.716246-28.502783-23.22748V508.689895h-30.063841c-15.153038 0.215318-28.045231-9.823905-28.368209-23.22748v-5.275303c0.322978-13.295916 13.322831-23.22748 28.368209-23.119821h126.042051c15.153038-0.215318 28.15289 9.823905 28.368209 23.22748v5.167644h-6.647958l6.782532 0.107659z m-216.610385 243.040727a101.038194 101.038194 0 0 1-29.498631 13.511235 119.93239 119.93239 0 0 1-65.241497 0 103.325953 103.325953 0 0 1-29.60629-13.511235 72.508496 72.508496 0 0 1-21.827911-23.22748 62.765335 62.765335 0 0 1-8.370505-32.836067V528.876002a64.676287 64.676287 0 0 1 8.370505-32.836067c5.086899-8.962631 12.542301-16.95633 21.827911-23.308225a97.700758 97.700758 0 0 1 29.498631-13.511235 119.421009 119.421009 0 0 1 65.241497 0c10.739009 3.014459 20.778233 7.563061 29.60629 13.511235 9.258694 6.351895 16.741011 14.345593 21.827911 23.308225 5.759769 10.281457 8.585824 21.504933 8.370505 32.647663v143.644337c0.322978 11.438794-2.503077 22.796843-8.370505 33.159045a74.446362 74.446362 0 0 1-21.827911 23.119821z m-35.823611-200.596073c0.565211-5.167643-2.045526-10.362202-6.782532-13.914956a34.666274 34.666274 0 0 0-19.459407-5.409877h-0.215318a34.316382 34.316382 0 0 0-19.109515 5.194558c-5.086899 3.768073-7.697635 8.962631-7.132424 14.88389v144.532525a15.50293 15.50293 0 0 0 6.674872 13.834212c11.411879 7.240084 27.937572 7.240084 38.8919 0.322978 5.086899-3.794988 7.697635-8.962631 7.132424-14.910804v-144.532526z m-175.915193 216.260492h-9.258694c-15.153038 0.107659-28.045231-9.823905-28.368209-23.335139V623.077834H274.598301v98.077565c-0.349893 13.295916-13.349745 23.33514-28.368209 23.119821h-9.393269c-15.045378 0.107659-27.910657-9.823905-28.368209-23.335139v-240.860628c0.322978-13.295916 13.322831-23.33514 28.368209-23.119821h9.258695c7.132424-0.107659 14.130275 2.153185 19.459407 6.244235 5.544451 4.333284 8.935717 10.496776 9.043376 17.198563v93.205985h46.56262v-93.313644c0.242233-13.403575 13.242086-23.442799 28.395123-23.335139h9.366354c15.045378-0.107659 27.937572 9.823905 28.368209 23.335139v248.100712h-1.561059c-3.848818 9.608587-14.695486 16.095056-26.80715 15.879737z" p-id="26363"></path></svg>