<?xml version="1.0" standalone="no"?><!DOCTYPE svg PUBLIC "-//W3C//DTD SVG 1.1//EN" "http://www.w3.org/Graphics/SVG/1.1/DTD/svg11.dtd"><svg t="1743212468962" class="icon" viewBox="0 0 1103 1024" version="1.1" xmlns="http://www.w3.org/2000/svg" p-id="27315" xmlns:xlink="http://www.w3.org/1999/xlink" width="107.71484375" height="100"><path d="M1021.409305 797.033412l-371.892705 202.601412c-30.358588 16.022588-64-2.740706-124.837648-2.740706h26.955295c-33.701647 0-67.343059 18.763294-97.28 2.951529L81.889305 796.973176a136.011294 136.011294 0 0 1-72.282353-121.072941V136.704C9.667188 61.379765 70.233776 0.030118 144.654482-0.030118h814.110118c74.390588 0.060235 134.987294 61.409882 135.077647 136.734118v539.196235a136.252235 136.252235 0 0 1-72.432942 121.133177z m-8.071529-660.329412a54.994824 54.994824 0 0 0-54.573176-55.205647H144.654482c-30.087529 0-54.543059 24.816941-54.543059 55.205647v539.196235c-0.030118 20.660706 11.173647 39.454118 29.304471 48.971294l0.512 0.271059 371.862588 202.541177a128.843294 128.843294 0 0 0 119.898353-0.060236l372.314353-202.752c18.130824-9.517176 29.394824-28.310588 29.334588-48.971294V136.704z m-96.768 146.974118H186.849305a40.568471 40.568471 0 0 1-40.237176-40.749177c0-22.497882 18.070588-40.779294 40.237176-40.779294h729.720471c22.196706 0 40.267294 18.281412 40.267294 40.779294 0 22.437647-18.070588 40.749176-40.267294 40.749177z m-699.331765 127.909647h3.945412c25.810824 0 40.658824 14.998588 40.658824 41.170823v61.560471h66.258823v-61.530353c0-26.142118 14.757647-41.140706 40.598588-41.140706h3.553883c25.840941 0 40.658824 14.998588 40.658823 41.140706v208.805647c0 26.142118-14.817882 41.110588-40.658823 41.110588h-3.553883c-25.840941 0-40.598588-14.968471-40.598588-41.110588v-69.632h-66.258823v69.571765c0 26.081882-14.848 41.110588-40.658824 41.110588h-3.945412c-25.810824 0-40.598588-15.028706-40.598588-41.110588v-208.77553c0-26.172235 14.787765-41.170824 40.598588-41.170823z m343.853177-4.638118c39.785412 0 72.161882 13.342118 96.015059 39.604706 24.184471 26.864941 36.412235 63.728941 36.412235 109.658353 0 45.959529-12.107294 82.974118-36.080941 110.110118-24.304941 27.437176-56.711529 41.381647-96.346353 41.381647-39.664941 0-72.071529-13.944471-96.346353-41.381647-23.973647-27.136-36.111059-64.210824-36.111059-110.260706 0-46.110118 12.227765-83.034353 36.352-109.778824 23.973647-26.142118 56.289882-39.333647 96.105412-39.333647z m-32.436706 205.191529c4.096 6.234353 8.734118 10.872471 14.095059 13.884236 5.300706 3.011765 11.384471 4.457412 18.341647 4.457412 13.914353 0 24.274824-5.872941 32.617412-18.401883 9.035294-13.552941 13.613176-32.406588 13.613176-56.018823 0-23.582118-4.457412-41.984-13.342118-54.784-8.131765-11.776-18.853647-17.498353-32.948706-17.498353-14.034824 0-24.756706 5.662118-32.737882 17.287529-8.673882 12.709647-13.071059 31.141647-13.071059 54.844235 0 23.732706 4.517647 42.646588 13.432471 56.229647z m152.545882-162.93647c0-23.913412 14.817882-37.556706 40.628706-37.556706h164.321882c25.840941 0 40.658824 13.643294 40.658824 37.556706 0 24.033882-14.817882 37.857882-40.658824 37.857882h-39.695058v174.47153c0 26.081882-14.817882 41.110588-40.658824 41.110588h-3.915294c-25.840941 0-40.658824-15.028706-40.658824-41.110588v-174.47153h-39.393882c-25.810824 0-40.628706-13.824-40.628706-37.857882z" p-id="27316"></path></svg>