<?xml version="1.0" standalone="no"?><!DOCTYPE svg PUBLIC "-//W3C//DTD SVG 1.1//EN" "http://www.w3.org/Graphics/SVG/1.1/DTD/svg11.dtd"><svg t="1743212153162" class="icon" viewBox="0 0 1243 1024" version="1.1" xmlns="http://www.w3.org/2000/svg" p-id="26205" xmlns:xlink="http://www.w3.org/1999/xlink" width="121.38671875" height="100"><path d="M1140.187429 1024H103.314286C46.372571 1024 0 979.638857 0 925.074286V98.925714C0 44.361143 46.372571 0 103.314286 0h1036.873143C1197.129143 0 1243.428571 44.361143 1243.428571 98.925714v826.148572C1243.428571 979.638857 1197.129143 1024 1140.187429 1024z m-5.046858-909.421714a9.179429 9.179429 0 0 0-9.216-9.508572H118.966857c-5.668571 0-10.678857 4.425143-10.678857 9.508572v797.44c0 5.083429 5.010286 9.581714 10.678857 9.581714h1006.957714a9.252571 9.252571 0 0 0 9.216-9.581714V114.578286z m-118.966857 742.107428h-87.588571c-29.769143 0-53.979429-23.222857-53.979429-51.748571 0-28.781714 24.210286-52.004571 53.979429-52.004572h87.588571c29.769143 0 54.016 23.222857 54.016 51.748572 0 28.781714-24.246857 52.004571-54.016 52.004571z m-0.950857-250.989714h-349.001143c-29.915429 0-54.272-23.296-54.272-51.858286 0-28.598857 24.356571-51.894857 54.272-51.894857h349.001143c29.952 0 54.272 23.296 54.272 51.894857 0 28.562286-24.32 51.858286-54.272 51.858286z m0-167.314286h-349.001143c-29.915429 0-54.272-23.296-54.272-51.858285 0-28.598857 24.356571-51.894857 54.272-51.894858h349.001143c29.952 0 54.272 23.296 54.272 51.894858 0 28.562286-24.32 51.858286-54.272 51.858285z m0-167.314285h-349.001143c-29.915429 0-54.272-23.296-54.272-51.858286 0-28.598857 24.356571-51.894857 54.272-51.894857h349.001143c29.952 0 54.272 23.296 54.272 51.894857 0 28.562286-24.32 51.858286-54.272 51.858286z m-541.659428 335.981714H248.832c-40.155429 0-72.813714-31.926857-72.813714-71.094857V237.056c0-38.4 32.658286-69.741714 72.813714-69.741714h224.731429c40.082286 0 72.704 31.341714 72.704 69.741714v298.898286c0 39.168-32.621714 71.094857-72.704 71.094857z m-36.973715-334.665143H285.696v229.558857h150.893714V272.384z m-206.482285 480.548571h524.068571c29.805714 0 54.052571 23.222857 54.052571 51.821715 0 28.708571-24.246857 51.931429-54.052571 51.931428H230.107429c-29.842286 0-54.089143-23.222857-54.089143-51.821714 0-28.708571 24.246857-51.931429 54.089143-51.931429z" p-id="26206"></path></svg>