<?xml version="1.0" standalone="no"?><!DOCTYPE svg PUBLIC "-//W3C//DTD SVG 1.1//EN" "http://www.w3.org/Graphics/SVG/1.1/DTD/svg11.dtd"><svg t="1743211696891" class="icon" viewBox="0 0 1024 1024" version="1.1" xmlns="http://www.w3.org/2000/svg" p-id="25734" xmlns:xlink="http://www.w3.org/1999/xlink" width="100" height="100"><path d="M699.704756 876.802259H323.880735C178.519954 876.59146 60.291981 761.706152 60.291981 620.621574V255.849429c0-141.054464 118.227973-255.819315 263.588754-255.819315h375.824021c145.360781 0 263.739325 114.764851 263.950124 255.819315v364.772145c-0.210799 141.084578-118.589342 255.969886-263.950124 256.180685zM323.940964 777.455829h375.763792c80.735913-0.150571 148.793789-59.053758 159.183155-135.844724a49.296789 49.296789 0 0 1-4.03529-2.680156l-99.075403-75.225032a73.177273 73.177273 0 0 0-81.579108-4.125632l-50.380897 30.806728a146.505117 146.505117 0 0 1-113.198917 16.954241 146.354547 146.354547 0 0 1-92.841784-70.888601l-51.555346-91.396307a32.011293 32.011293 0 0 0-27.343607-17.827549 33.486884 33.486884 0 0 0-28.096459 13.852488L182.043304 666.515469a53.904247 53.904247 0 0 1-8.07058 10.299023c23.639572 60.318551 82.723444 100.340195 149.96824 100.641337zM861.297039 255.849429c-0.210799-86.276909-72.695448-156.472886-161.592283-156.472885H323.880735C235.194698 99.527114 162.86062 169.78332 162.649821 255.849429v240.37078l61.432773-106.814727a133.586166 133.586166 0 0 1 51.976944-46.887661c65.588519-33.306199 146.836372-8.522291 181.045994 55.048583l51.404776 91.336078c5.902364 11.08199 15.990589 19.242913 27.915775 22.645806a44.267733 44.267733 0 0 0 32.764145-5.179625l50.290554-30.806729a177.070933 177.070933 0 0 1 92.420186-25.89813c38.094342 0 75.977885 12.135984 107.266439 35.986355l42.129632 32.011293V255.849429z m-149.877896 26.620869c-36.799435 0-66.55217-28.879426-66.552171-64.56464 0-35.715328 29.752735-64.594754 66.552171-64.594753 36.769321 0 66.522056 28.879426 66.522056 64.594753 0 35.685214-29.752735 64.564639-66.522056 64.56464zM231.008838 924.593342l561.929185-6.022821c28.216916 0 51.163863 22.284437 51.163863 49.658158 0 27.403835-22.946947 49.688272-51.163863 49.688272l-561.778615 6.022821c-28.367486 0-51.314434-22.284437-51.314433-49.658158 0-27.403835 22.946947-49.688272 51.163863-49.688272z" p-id="25735"></path></svg>