<?xml version="1.0" standalone="no"?><!DOCTYPE svg PUBLIC "-//W3C//DTD SVG 1.1//EN" "http://www.w3.org/Graphics/SVG/1.1/DTD/svg11.dtd"><svg t="1743212433387" class="icon" viewBox="0 0 1024 1024" version="1.1" xmlns="http://www.w3.org/2000/svg" p-id="27158" xmlns:xlink="http://www.w3.org/1999/xlink" width="100" height="100"><path d="M992.513931 558.497462l-41.648957 328.072122c-12.045975 79.051709-78.961364 136.209859-159.157441 136.209859h-0.06023c-33.036086 0.752873-69.17401 0.752873-104.107336 0.752873a2123.735457 2123.735457 0 0 1-237.667082-8.944136 50.111255 50.111255 0 0 1-43.726888-56.345047l0.210805-1.385287a51.707346 51.707346 0 0 1 59.41677-40.835854c38.968728 6.203677 151.207098 8.733332 324.15718 7.167355a58.242288 58.242288 0 0 0 57.188265-49.237922l41.648957-327.740857a52.911944 52.911944 0 0 0-14.184135-43.064359 60.049184 60.049184 0 0 0-44.208727-18.641146h-200.866629a55.863208 55.863208 0 0 1-39.962521-17.557008 48.033324 48.033324 0 0 1-10.901607-43.18482l11.925515-54.628495c17.888272-82.785961 38.215855-176.684334 29.874017-207.973754-8.131033-30.295626-20.448042-51.285737-27.043213-59.205965-6.95655 6.143447-12.256779 28.338156-12.256779 53.574472-0.301149 25.898846-3.854712 51.526657-10.479998 76.401595a483.766344 483.766344 0 0 1-209.53973 287.98914 49.057232 49.057232 0 0 0-22.375398 41.197234l1.505747 361.98154c0.150575 13.551722-5.631493 26.591489-15.870572 35.62597a53.725047 53.725047 0 0 1-35.86689 14.57563H82.139392A50.111255 50.111255 0 0 1 46.121928 959.507961 50.051025 50.051025 0 0 1 30.161011 924.273485V511.759081a51.797691 51.797691 0 0 1 53.845507-50.231715 51.948266 51.948266 0 0 1 50.111255 49.77999v361.740621h103.715843l-1.505747-311.84017a148.075144 148.075144 0 0 1 68.69217-124.766183 384.176249 384.176249 0 0 0 166.445256-228.783175 215.321798 215.321798 0 0 0 7.2577-52.219301c0-94.319982 47.069646-155.423189 119.947793-155.423188 81.942743 0 115.731702 104.709635 124.133769 136.751928 13.130112 50.984588-2.529655 131.331239-28.36827 247.454435h137.745721c45.624129 0 89.501592 18.97241 120.610322 52.159071a147.834225 147.834225 0 0 1 39.721601 122.116068z" p-id="27159"></path></svg>