<?xml version="1.0" standalone="no"?><!DOCTYPE svg PUBLIC "-//W3C//DTD SVG 1.1//EN" "http://www.w3.org/Graphics/SVG/1.1/DTD/svg11.dtd"><svg t="1743212305351" class="icon" viewBox="0 0 1054 1024" version="1.1" xmlns="http://www.w3.org/2000/svg" p-id="27082" id="mx_n_1743212305352" data-spm-anchor-id="a313x.manage_type_myprojects.0.i24.6c663a81UGrsrE" xmlns:xlink="http://www.w3.org/1999/xlink" width="102.9296875" height="100"><path d="M1053.808759 338.168834a47.217378 47.217378 0 0 0-0.120453-7.678847l-12.557172-138.73116-0.722715-6.564661A185.526954 185.526954 0 0 0 874.756126 23.275901l-116.537788-11.653779-27.131924-2.589729A2323.950197 2323.950197 0 0 0 295.68076 11.622122L179.052633 23.336127 172.548198 24.119068A185.436615 185.436615 0 0 0 12.828191 191.939506l-12.617399 138.851612-0.150566 3.583462c0 1.204525 0 2.40905 0.09034 4.095385l0.060226 0.331244-0.150566 7.588507a221.180892 221.180892 0 0 0 68.236338 159.870573v331.394925l0.120453 5.78172a185.135484 185.135484 0 0 0 185.557067 180.467949H800.105693l5.781719-0.060226c100.818738-3.222104 179.775348-85.069574 179.775348-186.340009v-331.244359a221.301345 221.301345 0 0 0 68.236338-160.051251l-0.150566-7.347603 0.060227-0.692601z m-172.728877 120.663286a121.506454 121.506454 0 0 1-159.057519-65.405705 48.271337 48.271337 0 0 0-46.464549-30.263689 48.180998 48.180998 0 0 0-45.049233 32.431834 110.123693 110.123693 0 0 1-65.857401 66.068193 108.708376 108.708376 0 0 1-84.196294-3.643688 109.852675 109.852675 0 0 1-57.004143-62.424505 48.180998 48.180998 0 0 0-44.989006-32.431834 48.482129 48.482129 0 0 0-46.524776 30.293802 121.386001 121.386001 0 0 1-120.392268 74.800999c-66.851134-4.607308-117.531521-62.936428-112.924213-130.329598l0.090339-3.734028-0.030113-0.813054 12.015136-132.497744a87.207606 87.207606 0 0 1 74.560094-78.896383l120.241702-12.165702a2224.185419 2224.185419 0 0 1 416.916196-2.469276l142.555527 14.123055a87.328058 87.328058 0 0 1 77.932764 75.614053l12.376493 136.41245v0.813054l0.120453 3.884593a122.078603 122.078603 0 0 1-74.319189 120.633173z m6.293643 101.692018v276.829945l-0.120453 4.547081a87.870095 87.870095 0 0 1-27.011472 59.202401 87.026927 87.026927 0 0 1-60.25636 24.120612H254.184876l-4.577195-0.120452a87.478624 87.478624 0 0 1-83.021882-87.599077v-276.98051a219.193426 219.193426 0 0 0 53.149664 6.534548h0.210791l6.926019-0.120453a218.320146 218.320146 0 0 0 148.969622-65.07446 208.172023 208.172023 0 0 0 151.197993 65.194913h0.09034l6.624887-0.120453a208.714059 208.714059 0 0 0 144.362314-65.07446 220.458178 220.458178 0 0 0 155.895641 65.194913h0.331244c17.917309 0 35.653938-2.198258 53.029211-6.534548z" p-id="27083" data-spm-anchor-id="a313x.manage_type_myprojects.0.i23.6c663a81UGrsrE" class=""></path></svg>