<?xml version="1.0" standalone="no"?><!DOCTYPE svg PUBLIC "-//W3C//DTD SVG 1.1//EN" "http://www.w3.org/Graphics/SVG/1.1/DTD/svg11.dtd"><svg t="1743211090870" class="icon" viewBox="0 0 1112 1024" version="1.1" xmlns="http://www.w3.org/2000/svg" p-id="25577" xmlns:xlink="http://www.w3.org/1999/xlink" width="108.59375" height="100"><path d="M983.77296 996.897022H278.101752c-37.643025 0-72.997355 7.709292-94.408707-24.784168l-1.927323-2.951213a123.920839 123.920839 0 0 1-18.339682-64.896576v-21.561925L18.756365 355.851359a123.529352 123.529352 0 0 1 9.937759-91.126235 115.157543 115.157543 0 0 1 68.690992-56.946369L775.712431 4.656991c60.740786-18.158995 124.372555 18.610712 141.838919 81.971452l36.468563 132.955165h29.753047c63.210168 0 114.675712 53.724126 114.675713 119.734934v564.946523c0 66.010809-51.465544 92.631957-114.675713 92.631957zM118.947041 297.278812c-12.226455 4.727964-19.213 19.393687-15.448697 33.216205l59.927696 218.088631v-209.265106c0-21.110209 5.45071-41.919273 15.629384-60.168611l-60.108383 18.128881z m712.868555-187.974211a26.22966 26.22966 0 0 0-31.861056-16.141329L377.780483 219.583608h484.450678l-30.415565-110.279007z m178.42794 230.013941c0-14.364578-10.720734-26.470575-24.392681-27.494465l-2.770526-0.120458H278.101752c-13.76229 0-25.356342 11.17245-26.350118 25.4768l-0.120457 2.890984v564.193662c0 14.364578 10.690619 26.470575 24.39268 27.494466l2.770527 0.120458h704.978576c13.76229 0 25.356342-11.17245 26.350118-25.4768l0.120458-2.58984V339.318542zM855.214501 732.492413c-11.92531 15.237897-27.404122 27.404122-44.629571 35.263986-17.104991 7.980321-37.341881 12.045768-60.138497 12.045768h-76.460513c-10.118445 0-24.543252-1.29492-33.51735-12.226455a35.715702 35.715702 0 0 1-2.770526-3.944989c-1.776751 2.951213-3.824531 5.420596-5.872312 7.378033-8.943983 8.58261-20.357348 12.888972-33.938952 12.888972h-1.535835c-12.858857 0-23.338676-3.854646-31.108196-11.473594a60.710671 60.710671 0 0 1-14.153778-21.742612l-14.003205-35.866274H483.211068l-12.587828 33.607693a60.680557 60.680557 0 0 1-15.749841 24.242108c-8.010436 7.438262-18.881741 11.232679-32.403117 11.232679-13.581604 0-24.994969-4.216019-33.758265-12.587828-7.046774-6.564944-10.871306-15.840185-10.991763-26.711491a59.927696 59.927696 0 0 1 3.643845-20.146547l82.904999-247.028589c2.951213-9.094555 8.823525-17.074876 16.593045-22.405128 7.107003-5.661511 17.64705-8.85364 29.331445-8.85364 12.075882 0 22.224442 3.192129 30.295107 9.455928 6.926317 4.90865 12.768514 12.979315 15.689613 21.983527l75.466737 223.388769v-210.740713c0-10.871306 2.770527-19.995975 8.161008-27.133092 8.703067-11.473594 23.63982-12.828743 34.179867-12.828743h74.442847c23.760278 0 44.870486 4.306362 62.758451 12.828743a124.583356 124.583356 0 0 1 44.810258 35.986732c12.045768 16.020872 20.628378 33.878723 25.627371 53.182066 4.246133 15.719727 6.775745 32.613917 7.408148 23.007417 0.240915 31.078082 0.301144 35.0833 0.301144 39.118632 0 23.579591-2.710298 45.382431-8.010436 64.806232a147.139057 147.139057 0 0 1-26.109202 53.27241z m-345.020913-218.088632l-42.973277 141.658233h86.036898l-43.063621-141.658233z m305.510793 56.223623a82.423168 82.423168 0 0 0-13.009429-32.22243 58.723119 58.723119 0 0 0-24.452909-20.086318c-9.997988-4.547277-22.706273-6.866088-37.853827-6.866088h-38.757258v207.187211l48.815475-0.060229c44.388655 0 67.546644-33.366778 68.841564-99.317357 0.060229-2.017666 0.060229-3.975103 0.060229-6.052999 0-15.810071-1.174462-30.11442-3.643845-42.58179z" p-id="25578"></path></svg>